<svg xmlns="http://www.w3.org/2000/svg" viewBox="0 0 41 41" width="1184" height="1184"><rect width="41" height="41" fill="white"/><path d="M4,4h1v1h-1z M5,4h1v1h-1z M6,4h1v1h-1z M7,4h1v1h-1z M8,4h1v1h-1z M9,4h1v1h-1z M10,4h1v1h-1z M15,4h1v1h-1z M16,4h1v1h-1z M18,4h1v1h-1z M19,4h1v1h-1z M22,4h1v1h-1z M23,4h1v1h-1z M26,4h1v1h-1z M27,4h1v1h-1z M30,4h1v1h-1z M31,4h1v1h-1z M32,4h1v1h-1z M33,4h1v1h-1z M34,4h1v1h-1z M35,4h1v1h-1z M36,4h1v1h-1z M4,5h1v1h-1z M10,5h1v1h-1z M13,5h1v1h-1z M19,5h1v1h-1z M21,5h1v1h-1z M25,5h1v1h-1z M26,5h1v1h-1z M27,5h1v1h-1z M28,5h1v1h-1z M30,5h1v1h-1z M36,5h1v1h-1z M4,6h1v1h-1z M6,6h1v1h-1z M7,6h1v1h-1z M8,6h1v1h-1z M10,6h1v1h-1z M14,6h1v1h-1z M15,6h1v1h-1z M18,6h1v1h-1z M19,6h1v1h-1z M21,6h1v1h-1z M27,6h1v1h-1z M30,6h1v1h-1z M32,6h1v1h-1z M33,6h1v1h-1z M34,6h1v1h-1z M36,6h1v1h-1z M4,7h1v1h-1z M6,7h1v1h-1z M7,7h1v1h-1z M8,7h1v1h-1z M10,7h1v1h-1z M13,7h1v1h-1z M14,7h1v1h-1z M16,7h1v1h-1z M17,7h1v1h-1z M21,7h1v1h-1z M25,7h1v1h-1z M27,7h1v1h-1z M30,7h1v1h-1z M32,7h1v1h-1z M33,7h1v1h-1z M34,7h1v1h-1z M36,7h1v1h-1z M4,8h1v1h-1z M6,8h1v1h-1z M7,8h1v1h-1z M8,8h1v1h-1z M10,8h1v1h-1z M13,8h1v1h-1z M14,8h1v1h-1z M15,8h1v1h-1z M20,8h1v1h-1z M23,8h1v1h-1z M25,8h1v1h-1z M26,8h1v1h-1z M30,8h1v1h-1z M32,8h1v1h-1z M33,8h1v1h-1z M34,8h1v1h-1z M36,8h1v1h-1z M4,9h1v1h-1z M10,9h1v1h-1z M12,9h1v1h-1z M13,9h1v1h-1z M16,9h1v1h-1z M17,9h1v1h-1z M22,9h1v1h-1z M24,9h1v1h-1z M26,9h1v1h-1z M27,9h1v1h-1z M30,9h1v1h-1z M36,9h1v1h-1z M4,10h1v1h-1z M5,10h1v1h-1z M6,10h1v1h-1z M7,10h1v1h-1z M8,10h1v1h-1z M9,10h1v1h-1z M10,10h1v1h-1z M12,10h1v1h-1z M14,10h1v1h-1z M16,10h1v1h-1z M18,10h1v1h-1z M20,10h1v1h-1z M22,10h1v1h-1z M24,10h1v1h-1z M26,10h1v1h-1z M28,10h1v1h-1z M30,10h1v1h-1z M31,10h1v1h-1z M32,10h1v1h-1z M33,10h1v1h-1z M34,10h1v1h-1z M35,10h1v1h-1z M36,10h1v1h-1z M13,11h1v1h-1z M15,11h1v1h-1z M16,11h1v1h-1z M18,11h1v1h-1z M21,11h1v1h-1z M22,11h1v1h-1z M23,11h1v1h-1z M24,11h1v1h-1z M25,11h1v1h-1z M26,11h1v1h-1z M28,11h1v1h-1z M4,12h1v1h-1z M7,12h1v1h-1z M9,12h1v1h-1z M10,12h1v1h-1z M12,12h1v1h-1z M13,12h1v1h-1z M15,12h1v1h-1z M16,12h1v1h-1z M17,12h1v1h-1z M19,12h1v1h-1z M20,12h1v1h-1z M23,12h1v1h-1z M25,12h1v1h-1z M29,12h1v1h-1z M31,12h1v1h-1z M4,13h1v1h-1z M6,13h1v1h-1z M7,13h1v1h-1z M8,13h1v1h-1z M12,13h1v1h-1z M13,13h1v1h-1z M14,13h1v1h-1z M16,13h1v1h-1z M20,13h1v1h-1z M24,13h1v1h-1z M28,13h1v1h-1z M29,13h1v1h-1z M30,13h1v1h-1z M31,13h1v1h-1z M35,13h1v1h-1z M36,13h1v1h-1z M4,14h1v1h-1z M5,14h1v1h-1z M8,14h1v1h-1z M9,14h1v1h-1z M10,14h1v1h-1z M14,14h1v1h-1z M15,14h1v1h-1z M20,14h1v1h-1z M21,14h1v1h-1z M23,14h1v1h-1z M24,14h1v1h-1z M25,14h1v1h-1z M26,14h1v1h-1z M28,14h1v1h-1z M31,14h1v1h-1z M32,14h1v1h-1z M34,14h1v1h-1z M36,14h1v1h-1z M4,15h1v1h-1z M5,15h1v1h-1z M6,15h1v1h-1z M7,15h1v1h-1z M8,15h1v1h-1z M9,15h1v1h-1z M13,15h1v1h-1z M18,15h1v1h-1z M21,15h1v1h-1z M23,15h1v1h-1z M27,15h1v1h-1z M28,15h1v1h-1z M29,15h1v1h-1z M30,15h1v1h-1z M32,15h1v1h-1z M33,15h1v1h-1z M35,15h1v1h-1z M4,16h1v1h-1z M5,16h1v1h-1z M7,16h1v1h-1z M8,16h1v1h-1z M10,16h1v1h-1z M12,16h1v1h-1z M15,16h1v1h-1z M27,16h1v1h-1z M28,16h1v1h-1z M29,16h1v1h-1z M30,16h1v1h-1z M33,16h1v1h-1z M35,16h1v1h-1z M36,16h1v1h-1z M5,17h1v1h-1z M6,17h1v1h-1z M8,17h1v1h-1z M14,17h1v1h-1z M19,17h1v1h-1z M20,17h1v1h-1z M21,17h1v1h-1z M26,17h1v1h-1z M27,17h1v1h-1z M30,17h1v1h-1z M32,17h1v1h-1z M35,17h1v1h-1z M36,17h1v1h-1z M4,18h1v1h-1z M5,18h1v1h-1z M6,18h1v1h-1z M9,18h1v1h-1z M10,18h1v1h-1z M12,18h1v1h-1z M13,18h1v1h-1z M14,18h1v1h-1z M15,18h1v1h-1z M16,18h1v1h-1z M18,18h1v1h-1z M24,18h1v1h-1z M26,18h1v1h-1z M27,18h1v1h-1z M28,18h1v1h-1z M29,18h1v1h-1z M30,18h1v1h-1z M31,18h1v1h-1z M32,18h1v1h-1z M34,18h1v1h-1z M35,18h1v1h-1z M5,19h1v1h-1z M7,19h1v1h-1z M12,19h1v1h-1z M14,19h1v1h-1z M15,19h1v1h-1z M17,19h1v1h-1z M19,19h1v1h-1z M21,19h1v1h-1z M22,19h1v1h-1z M23,19h1v1h-1z M25,19h1v1h-1z M26,19h1v1h-1z M28,19h1v1h-1z M30,19h1v1h-1z M31,19h1v1h-1z M32,19h1v1h-1z M35,19h1v1h-1z M8,20h1v1h-1z M10,20h1v1h-1z M11,20h1v1h-1z M12,20h1v1h-1z M15,20h1v1h-1z M16,20h1v1h-1z M18,20h1v1h-1z M21,20h1v1h-1z M23,20h1v1h-1z M25,20h1v1h-1z M26,20h1v1h-1z M27,20h1v1h-1z M28,20h1v1h-1z M30,20h1v1h-1z M32,20h1v1h-1z M33,20h1v1h-1z M35,20h1v1h-1z M4,21h1v1h-1z M11,21h1v1h-1z M14,21h1v1h-1z M16,21h1v1h-1z M18,21h1v1h-1z M20,21h1v1h-1z M25,21h1v1h-1z M27,21h1v1h-1z M31,21h1v1h-1z M33,21h1v1h-1z M5,22h1v1h-1z M6,22h1v1h-1z M7,22h1v1h-1z M8,22h1v1h-1z M10,22h1v1h-1z M11,22h1v1h-1z M12,22h1v1h-1z M15,22h1v1h-1z M16,22h1v1h-1z M17,22h1v1h-1z M18,22h1v1h-1z M20,22h1v1h-1z M22,22h1v1h-1z M24,22h1v1h-1z M26,22h1v1h-1z M29,22h1v1h-1z M34,22h1v1h-1z M35,22h1v1h-1z M36,22h1v1h-1z M4,23h1v1h-1z M8,23h1v1h-1z M9,23h1v1h-1z M12,23h1v1h-1z M15,23h1v1h-1z M16,23h1v1h-1z M18,23h1v1h-1z M21,23h1v1h-1z M22,23h1v1h-1z M23,23h1v1h-1z M24,23h1v1h-1z M25,23h1v1h-1z M28,23h1v1h-1z M31,23h1v1h-1z M35,23h1v1h-1z M4,24h1v1h-1z M6,24h1v1h-1z M7,24h1v1h-1z M10,24h1v1h-1z M11,24h1v1h-1z M13,24h1v1h-1z M15,24h1v1h-1z M16,24h1v1h-1z M19,24h1v1h-1z M20,24h1v1h-1z M21,24h1v1h-1z M22,24h1v1h-1z M23,24h1v1h-1z M26,24h1v1h-1z M27,24h1v1h-1z M28,24h1v1h-1z M29,24h1v1h-1z M36,24h1v1h-1z M8,25h1v1h-1z M13,25h1v1h-1z M14,25h1v1h-1z M15,25h1v1h-1z M18,25h1v1h-1z M19,25h1v1h-1z M20,25h1v1h-1z M21,25h1v1h-1z M22,25h1v1h-1z M23,25h1v1h-1z M24,25h1v1h-1z M25,25h1v1h-1z M26,25h1v1h-1z M28,25h1v1h-1z M29,25h1v1h-1z M30,25h1v1h-1z M33,25h1v1h-1z M34,25h1v1h-1z M35,25h1v1h-1z M36,25h1v1h-1z M4,26h1v1h-1z M5,26h1v1h-1z M7,26h1v1h-1z M9,26h1v1h-1z M10,26h1v1h-1z M12,26h1v1h-1z M13,26h1v1h-1z M17,26h1v1h-1z M19,26h1v1h-1z M22,26h1v1h-1z M24,26h1v1h-1z M25,26h1v1h-1z M30,26h1v1h-1z M32,26h1v1h-1z M33,26h1v1h-1z M34,26h1v1h-1z M36,26h1v1h-1z M5,27h1v1h-1z M7,27h1v1h-1z M8,27h1v1h-1z M11,27h1v1h-1z M13,27h1v1h-1z M16,27h1v1h-1z M17,27h1v1h-1z M18,27h1v1h-1z M20,27h1v1h-1z M22,27h1v1h-1z M25,27h1v1h-1z M26,27h1v1h-1z M27,27h1v1h-1z M28,27h1v1h-1z M31,27h1v1h-1z M4,28h1v1h-1z M7,28h1v1h-1z M9,28h1v1h-1z M10,28h1v1h-1z M11,28h1v1h-1z M13,28h1v1h-1z M16,28h1v1h-1z M18,28h1v1h-1z M19,28h1v1h-1z M20,28h1v1h-1z M21,28h1v1h-1z M23,28h1v1h-1z M24,28h1v1h-1z M25,28h1v1h-1z M27,28h1v1h-1z M28,28h1v1h-1z M29,28h1v1h-1z M30,28h1v1h-1z M31,28h1v1h-1z M32,28h1v1h-1z M12,29h1v1h-1z M13,29h1v1h-1z M14,29h1v1h-1z M15,29h1v1h-1z M16,29h1v1h-1z M20,29h1v1h-1z M23,29h1v1h-1z M24,29h1v1h-1z M26,29h1v1h-1z M28,29h1v1h-1z M32,29h1v1h-1z M33,29h1v1h-1z M36,29h1v1h-1z M4,30h1v1h-1z M5,30h1v1h-1z M6,30h1v1h-1z M7,30h1v1h-1z M8,30h1v1h-1z M9,30h1v1h-1z M10,30h1v1h-1z M13,30h1v1h-1z M16,30h1v1h-1z M17,30h1v1h-1z M18,30h1v1h-1z M25,30h1v1h-1z M28,30h1v1h-1z M30,30h1v1h-1z M32,30h1v1h-1z M33,30h1v1h-1z M34,30h1v1h-1z M35,30h1v1h-1z M4,31h1v1h-1z M10,31h1v1h-1z M12,31h1v1h-1z M13,31h1v1h-1z M18,31h1v1h-1z M19,31h1v1h-1z M20,31h1v1h-1z M28,31h1v1h-1z M32,31h1v1h-1z M36,31h1v1h-1z M4,32h1v1h-1z M6,32h1v1h-1z M7,32h1v1h-1z M8,32h1v1h-1z M10,32h1v1h-1z M14,32h1v1h-1z M20,32h1v1h-1z M23,32h1v1h-1z M26,32h1v1h-1z M28,32h1v1h-1z M29,32h1v1h-1z M30,32h1v1h-1z M31,32h1v1h-1z M32,32h1v1h-1z M33,32h1v1h-1z M4,33h1v1h-1z M6,33h1v1h-1z M7,33h1v1h-1z M8,33h1v1h-1z M10,33h1v1h-1z M12,33h1v1h-1z M15,33h1v1h-1z M16,33h1v1h-1z M19,33h1v1h-1z M21,33h1v1h-1z M23,33h1v1h-1z M24,33h1v1h-1z M27,33h1v1h-1z M28,33h1v1h-1z M30,33h1v1h-1z M32,33h1v1h-1z M33,33h1v1h-1z M34,33h1v1h-1z M35,33h1v1h-1z M4,34h1v1h-1z M6,34h1v1h-1z M7,34h1v1h-1z M8,34h1v1h-1z M10,34h1v1h-1z M13,34h1v1h-1z M25,34h1v1h-1z M27,34h1v1h-1z M28,34h1v1h-1z M29,34h1v1h-1z M32,34h1v1h-1z M33,34h1v1h-1z M34,34h1v1h-1z M36,34h1v1h-1z M4,35h1v1h-1z M10,35h1v1h-1z M13,35h1v1h-1z M14,35h1v1h-1z M15,35h1v1h-1z M16,35h1v1h-1z M17,35h1v1h-1z M18,35h1v1h-1z M19,35h1v1h-1z M20,35h1v1h-1z M21,35h1v1h-1z M22,35h1v1h-1z M25,35h1v1h-1z M27,35h1v1h-1z M28,35h1v1h-1z M30,35h1v1h-1z M4,36h1v1h-1z M5,36h1v1h-1z M6,36h1v1h-1z M7,36h1v1h-1z M8,36h1v1h-1z M9,36h1v1h-1z M10,36h1v1h-1z M12,36h1v1h-1z M17,36h1v1h-1z M20,36h1v1h-1z M24,36h1v1h-1z M25,36h1v1h-1z M28,36h1v1h-1z M29,36h1v1h-1z M32,36h1v1h-1z M33,36h1v1h-1z M35,36h1v1h-1z" fill="#000"/></svg>
